<svg xmlns="http://www.w3.org/2000/svg" display="none">
  <symbol id="Gluten" viewBox="0 0 52.2 81.02">
    <title>Gluten-Icon</title>
    <path d="M67,45c-1.18,4-3.87,15.22,2,25a24.55,24.55,0,0,0,3,4" transform="translate(-48.49 -35)"/>
    <path d="M71.53,74c1.13-4,3.68-15.27-2.32-25a24.55,24.55,0,0,0-3.05-4" transform="translate(-48.49 -35)"/>
    <path d="M49.87,68.17c1.81,3.77,7.31,13.9,18.23,17.23a24.55,24.55,0,0,0,4.91,1" transform="translate(-48.49 -35)"/>
    <path d="M72.64,86.65c-1.86-3.75-7.49-13.8-18.45-17a24.55,24.55,0,0,0-4.92-.9" transform="translate(-48.49 -35)"/>
    <path d="M51.43,83.26c2.44,3.4,9.61,12.42,20.93,13.81a24.55,24.55,0,0,0,5,.1" transform="translate(-48.49 -35)"/>
    <path d="M77.06,97.52C74.58,94.15,67.3,85.23,56,84a24.55,24.55,0,0,0-5,0" transform="translate(-48.49 -35)"/>
    <path d="M50.94,95.6c3,3.27,11.84,11.87,24.5,12.13a29.1,29.1,0,0,0,5.54-.42" transform="translate(-48.49 -35)"/>
    <path d="M80.67,107.71C77.6,104.48,68.67,96,56,95.87a29.1,29.1,0,0,0-5.53.48" transform="translate(-48.49 -35)"/>
    <path d="M100.69,87.17c-3.86,1.38-14.28,5.72-18.63,16a24,24,0,0,0-1.43,4.67" transform="translate(-48.49 -35)"/>
    <path d="M80.37,107.46c3.84-1.43,14.21-5.9,18.42-16.24a24,24,0,0,0,1.37-4.69" transform="translate(-48.49 -35)"/>
    <path d="M96.93,75c-3.81,1.72-14.06,7-17.65,17.82a24.55,24.55,0,0,0-1.08,4.88" transform="translate(-48.49 -35)"/>
    <path d="M77.92,97.34c3.79-1.77,14-7.17,17.42-18a24.55,24.55,0,0,0,1-4.9" transform="translate(-48.49 -35)"/>
    <path d="M90.17,62c-3.56,2.19-13.06,8.72-15.24,19.92a24.55,24.55,0,0,0-.45,5" transform="translate(-48.49 -35)"/>
    <path d="M74.16,86.56c3.54-2.24,12.95-8.89,15-20.11a24.55,24.55,0,0,0,.38-5" transform="translate(-48.49 -35)"/>
    <path d="M77,110.9C80,113.28,85,112,88,108.1" transform="translate(-48.49 -35)"/>
    <rect x="83" y="110" width="1" height="6" transform="translate(146.68 163.26) rotate(163.82)"/>
    <rect x="48.94" y="60" width="0.51" height="7.03" transform="translate(57.55 85.29) rotate(172.72)"/>
    <rect x="65.94" y="35" width="0.51" height="7.03" transform="translate(88.24 33.34) rotate(172.72)"/>
    <rect x="87.94" y="54" width="0.51" height="7.03" transform="translate(134.47 68.39) rotate(172.72)"/>
  </symbol>

  <symbol id="Nut" viewBox="0 0 78.12 106.88">
    <title>Nut-Icon</title>
    <path d="M115,58.92C112.5,65.35,99.65,61.76,85,56S59.45,44.5,62,38.08s16.45-7,31.1-1.21S117.55,52.5,115,58.92Z" transform="translate(-37.31 -20)"/>
    <path d="M106.1,68.61a4.78,4.78,0,0,1-2.9.89,4.54,4.54,0,0,1-4.05-2.16l-.23,0a4.6,4.6,0,0,1-3.54-1.49c-.72-.23-1.43-.49-2.13-.76a5.4,5.4,0,0,1-1.05.11,4.6,4.6,0,0,1-3.6-1.53h-.07a4.54,4.54,0,0,1-4.15-2.31,5.38,5.38,0,0,1-1.36.17,4.56,4.56,0,0,1-3.87-1.88,5.7,5.7,0,0,1-.71,0,4.53,4.53,0,0,1-4.38-2.81l-.19-.11a4.9,4.9,0,0,1-1.69.44A5.28,5.28,0,0,1,70.39,63L69,66.46a5.2,5.2,0,0,1-1.07,2.69L54.76,102.2C45.82,95.76,50,74.71,64.08,55a4.45,4.45,0,0,1-.86-.91,5.56,5.56,0,0,1-1,.09,4.63,4.63,0,0,1-3.45-1.38A39.69,39.69,0,0,0,39.54,75.35C32.63,95.46,42.29,117,61.13,123.47s39.7-4.59,46.61-24.7A39.61,39.61,0,0,0,106.1,68.61Z" transform="translate(-37.31 -20)"/>
    <ellipse cx="59.5" cy="122.5" rx="4.5" ry="3.5" transform="translate(-113.59 112.98) rotate(-68.51)"/>
    <path d="M92,20a9.84,9.84,0,0,0-4.32,1,4.45,4.45,0,0,1-1.88,1.89c.07.76-1.29,2.35-.8,3.11,1.48.44,5.12-.2,7.29,0l.36,0a4.92,4.92,0,0,1,2.5.63c.72,0,1.2.6,1.51,1.46a5.61,5.61,0,0,1,.47,4.87A9.53,9.53,0,0,1,97,34c1.16,1.55-2.36,4.07-3.18,5.83A10,10,0,0,0,92,20Z" transform="translate(-37.31 -20)"/>
  </symbol>

  <symbol id="Shellfish" viewBox="0 0 47.99 68.02">
    <title>Shellfish-Icon</title>
    <path d="M68.91,47.61l1.41-2.82,3.19-1.46C72.7,42.87,70.12,41,69.13,41a6.23,6.23,0,0,0,0,12.44,6,6,0,0,0,5.76-5.27,3,3,0,0,1-1.09-.56Z" transform="translate(-51.01 -41)"/>
    <path d="M88.91,51.71a7.27,7.27,0,0,0-1.83,9.65,6.24,6.24,0,0,0,9,2A7.25,7.25,0,0,0,98.4,54.6a3.25,3.25,0,0,1-1.33.19L92.52,58l-.31-3.56L94.32,51c-1,.11-4.49.06-5.41.71" transform="translate(-51.01 -41)"/>
    <ellipse cx="11.92" cy="12.06" rx="4.01" ry="4.28"/>
    <ellipse cx="9.01" cy="17.5" rx="4.01" ry="4.28"/>
    <ellipse cx="37.03" cy="24.38" rx="4.47" ry="4.79"/>
    <ellipse cx="26.46" cy="32.21" rx="4.47" ry="4.79"/>
    <ellipse cx="32.15" cy="28.73" rx="4.47" ry="4.79"/>
    <ellipse cx="9.01" cy="23.72" rx="4.01" ry="4.28"/>
    <ellipse cx="66.86" cy="71.5" rx="6.95" ry="10.17" transform="translate(-71.83 74.02) rotate(-73.32)"/>
    <polygon points="15.79 63.63 6.86 63.89 1.08 68.02 0.99 61 0.99 59 6.67 51.28 15.79 63.63"/>
    <ellipse cx="63" cy="77.5" rx="4.5" ry="7" transform="translate(-80.33 74.6) rotate(-73.32)"/>
    <ellipse cx="58" cy="93.5" rx="7" ry="4.5" transform="translate(-62.15 -33.09) rotate(-7.12)"/>
    <ellipse cx="58" cy="88.5" rx="4.5" ry="7" transform="translate(-85.01 99.77) rotate(-86.37)"/>
    <ellipse cx="60" cy="82.5" rx="4.5" ry="7" transform="translate(-87.26 75.29) rotate(-73.32)"/>
  </symbol>

  <symbol id="Spicy" viewBox="0 0 49.24 125.46">
      <title>Spicy-Icon</title>
      <title>Spicy-Icon</title>
      <path d="M58.5,44.5A90.73,90.73,0,0,0,58.21,89C65,116.5,82.88,135,90,138" transform="translate(-55.58 -13.5)"/>
      <path d="M89.91,138.1c1-2.68,1.92-4.8,2.09-7.1.29-3.91-2-7.28-4-8" transform="translate(-55.58 -13.5)"/>
      <path d="M86.71,129.66c2.46-9.67,3.5-18.63,3.16-25-.29-5.45-1.59-9-3.87-9.63" transform="translate(-55.58 -13.5)"/>
      <path d="M83,103A105.05,105.05,0,0,0,93.3,75.59a72.16,72.16,0,0,0,.2-31.09" transform="translate(-55.58 -13.5)"/>
      <path d="M58.5,44.5c4-5.38,14.13-11.09,19.5-11.5,5.06-.38,3.35-1,15.5,11.5" transform="translate(-55.58 -13.5)"/>
      <path d="M63.5,40.5c0-3.87,6.26-7,14-7" transform="translate(-55.58 -13.5)"/>
      <path d="M89.5,41.5a8,8,0,0,0-8-8" transform="translate(-55.58 -13.5)"/>
      <path d="M77.5,33.5c0-11,10.73-20,24-20" transform="translate(-55.58 -13.5)"/>
      <path d="M81.5,33.5c0-.59-3.5.5-3.5-.5,0-7.53,11.28-14.5,19.5-14.5" transform="translate(-55.58 -13.5)"/>
      <path d="M95,18c0,1.13,3.64-2.64,5-4,1-1,2.38,2.2,3,4s0,3.5.5,3.5" transform="translate(-55.58 -13.5)"/>
      <path d="M101.5,13.5c-.16,7.23,2.53,8.12,2,8" transform="translate(-55.58 -13.5)"/>
      <path d="M82,82" transform="translate(-55.58 -13.5)"/>
      <path d="M92,69c0,17.67-7.16,32-16,32S60,86.67,60,69c0-6.94-2.4-18.07-1-24,.12-.52.82-.56,1-1,2.93-7.33,10.94-7,16-7s15.07,1.61,18,9C96.16,51.46,92,61.49,92,69Z" transform="translate(-55.58 -13.5)"/>
      <path d="M88,112.5c0,10.22-2.46,18.5-5.5,18.5S77,122.72,77,112.5c0-3.49-1.52-8.72-1-11.5,1.24-6.71,4.52-7.08,6.5-7C85.54,94.12,88,102.28,88,112.5Z" transform="translate(-55.58 -13.5)"/>
      <ellipse cx="32.42" cy="116.5" rx="2" ry="7"/>
    </symbol>

  <symbol id="Sweet" viewBox="0 0 122.71 64">
    <title>Sweet-Icon</title>
    <polygon points="29.3 47.71 1.61 58 5.64 45.64 0 34.36 6.98 22.76 1.72 13.93 29.38 15.81 25.66 32.67 29.3 47.71"/>
    <polygon points="94.35 18.25 122.71 10 117.79 22.04 122.6 33.69 114.8 44.76 119.4 53.95 91.96 50.07 96.88 33.52 94.35 18.25"/>
    <path d="M75.77,43a31.9,31.9,0,0,0-12.53,2.23q-.9.36-1.77.76L66,44v63l-4-4H60V46.73a32,32,0,0,0,24.23,58.91q1-.29,1.92-.65L82,106V44.58a.6.6,0,0,1,1-.4L84.64,46H87v58.66A32,32,0,0,0,75.77,43Z" transform="translate(-13.39 -43)"/>
  </symbol>

  <symbol id="Alcohol" viewBox="0 0 170.54 249.36">
    <title>Alcohol-icon</title>
    <path d="M148.16,91.63L210.46,3.21A1.63,1.63,0,0,0,209.15.64H41.84a1.63,1.63,0,0,0-1.32,2.57l62.31,88.42a33.84,33.84,0,0,0,10,9.57h0s7,4.38,7,10.28v94.6c0,32.67-29.36,37.28-41.33,37.81h-5V250H177.8v-6.13h-5.87c-12-.52-41.33-5.14-41.33-37.81v-94.6c0-5.9,7.63-10.28,7.63-10.28h0A33.84,33.84,0,0,0,148.16,91.63Zm-8.62-.84a17.25,17.25,0,0,1-28.09,0h0L86.21,53.63h78.65L139.64,90.79h-0.1Z" transform="translate(-40.22 -0.64)"/>
  </symbol>
</svg>
