<svg id="alcohol" xmlns="http://www.w3.org/2000/svg" viewBox="0 0 170.54 249.36">
  <title>alcohol-icon</title>
  <path d="M148.16,91.63L210.46,3.21A1.63,1.63,0,0,0,209.15.64H41.84a1.63,1.63,0,0,0-1.32,2.57l62.31,88.42a33.84,33.84,0,0,0,10,9.57h0s7,4.38,7,10.28v94.6c0,32.67-29.36,37.28-41.33,37.81h-5V250H177.8v-6.13h-5.87c-12-.52-41.33-5.14-41.33-37.81v-94.6c0-5.9,7.63-10.28,7.63-10.28h0A33.84,33.84,0,0,0,148.16,91.63Zm-8.62-.84a17.25,17.25,0,0,1-28.09,0h0L86.21,53.63h78.65L139.64,90.79h-0.1Z" transform="translate(-40.22 -0.64)" fill="#ed1f24"/>
</svg>
