<svg id="Gluten" xmlns="http://www.w3.org/2000/svg" viewBox="0 0 52.2 81.02">
  <title>Gluten-Icon</title>
  <path d="M67,45c-1.18,4-3.87,15.22,2,25a24.55,24.55,0,0,0,3,4" transform="translate(-48.49 -35)"/>
  <path d="M71.53,74c1.13-4,3.68-15.27-2.32-25a24.55,24.55,0,0,0-3.05-4" transform="translate(-48.49 -35)"/>
  <path d="M49.87,68.17c1.81,3.77,7.31,13.9,18.23,17.23a24.55,24.55,0,0,0,4.91,1" transform="translate(-48.49 -35)"/>
  <path d="M72.64,86.65c-1.86-3.75-7.49-13.8-18.45-17a24.55,24.55,0,0,0-4.92-.9" transform="translate(-48.49 -35)"/>
  <path d="M51.43,83.26c2.44,3.4,9.61,12.42,20.93,13.81a24.55,24.55,0,0,0,5,.1" transform="translate(-48.49 -35)"/>
  <path d="M77.06,97.52C74.58,94.15,67.3,85.23,56,84a24.55,24.55,0,0,0-5,0" transform="translate(-48.49 -35)"/>
  <path d="M50.94,95.6c3,3.27,11.84,11.87,24.5,12.13a29.1,29.1,0,0,0,5.54-.42" transform="translate(-48.49 -35)"/>
  <path d="M80.67,107.71C77.6,104.48,68.67,96,56,95.87a29.1,29.1,0,0,0-5.53.48" transform="translate(-48.49 -35)"/>
  <path d="M100.69,87.17c-3.86,1.38-14.28,5.72-18.63,16a24,24,0,0,0-1.43,4.67" transform="translate(-48.49 -35)"/>
  <path d="M80.37,107.46c3.84-1.43,14.21-5.9,18.42-16.24a24,24,0,0,0,1.37-4.69" transform="translate(-48.49 -35)"/>
  <path d="M96.93,75c-3.81,1.72-14.06,7-17.65,17.82a24.55,24.55,0,0,0-1.08,4.88" transform="translate(-48.49 -35)"/>
  <path d="M77.92,97.34c3.79-1.77,14-7.17,17.42-18a24.55,24.55,0,0,0,1-4.9" transform="translate(-48.49 -35)"/>
  <path d="M90.17,62c-3.56,2.19-13.06,8.72-15.24,19.92a24.55,24.55,0,0,0-.45,5" transform="translate(-48.49 -35)"/>
  <path d="M74.16,86.56c3.54-2.24,12.95-8.89,15-20.11a24.55,24.55,0,0,0,.38-5" transform="translate(-48.49 -35)"/>
  <path d="M77,110.9C80,113.28,85,112,88,108.1" transform="translate(-48.49 -35)"/>
  <rect x="83" y="110" width="1" height="6" transform="translate(146.68 163.26) rotate(163.82)"/>
  <rect x="48.94" y="60" width="0.51" height="7.03" transform="translate(57.55 85.29) rotate(172.72)"/>
  <rect x="65.94" y="35" width="0.51" height="7.03" transform="translate(88.24 33.34) rotate(172.72)"/>
  <rect x="87.94" y="54" width="0.51" height="7.03" transform="translate(134.47 68.39) rotate(172.72)"/>
</svg>
