<svg id="Nut" xmlns="http://www.w3.org/2000/svg" viewBox="0 0 78.12 106.88">
  <title>Nut-Icon</title>
  <path d="M115,58.92C112.5,65.35,99.65,61.76,85,56S59.45,44.5,62,38.08s16.45-7,31.1-1.21S117.55,52.5,115,58.92Z" transform="translate(-37.31 -20)"/>
  <path d="M106.1,68.61a4.78,4.78,0,0,1-2.9.89,4.54,4.54,0,0,1-4.05-2.16l-.23,0a4.6,4.6,0,0,1-3.54-1.49c-.72-.23-1.43-.49-2.13-.76a5.4,5.4,0,0,1-1.05.11,4.6,4.6,0,0,1-3.6-1.53h-.07a4.54,4.54,0,0,1-4.15-2.31,5.38,5.38,0,0,1-1.36.17,4.56,4.56,0,0,1-3.87-1.88,5.7,5.7,0,0,1-.71,0,4.53,4.53,0,0,1-4.38-2.81l-.19-.11a4.9,4.9,0,0,1-1.69.44A5.28,5.28,0,0,1,70.39,63L69,66.46a5.2,5.2,0,0,1-1.07,2.69L54.76,102.2C45.82,95.76,50,74.71,64.08,55a4.45,4.45,0,0,1-.86-.91,5.56,5.56,0,0,1-1,.09,4.63,4.63,0,0,1-3.45-1.38A39.69,39.69,0,0,0,39.54,75.35C32.63,95.46,42.29,117,61.13,123.47s39.7-4.59,46.61-24.7A39.61,39.61,0,0,0,106.1,68.61Z" transform="translate(-37.31 -20)"/>
  <ellipse cx="59.5" cy="122.5" rx="4.5" ry="3.5" transform="translate(-113.59 112.98) rotate(-68.51)"/>
  <path d="M92,20a9.84,9.84,0,0,0-4.32,1,4.45,4.45,0,0,1-1.88,1.89c.07.76-1.29,2.35-.8,3.11,1.48.44,5.12-.2,7.29,0l.36,0a4.92,4.92,0,0,1,2.5.63c.72,0,1.2.6,1.51,1.46a5.61,5.61,0,0,1,.47,4.87A9.53,9.53,0,0,1,97,34c1.16,1.55-2.36,4.07-3.18,5.83A10,10,0,0,0,92,20Z" transform="translate(-37.31 -20)"/>
</svg>
