<svg id="Spicy" xmlns="http://www.w3.org/2000/svg" viewBox="0 0 47.99 124.6">
  <title>Spicy-Icon</title>
  <path d="M58.5,44.5A90.73,90.73,0,0,0,58.21,89C65,116.5,82.88,135,90,138" transform="translate(-55.58 -13.5)"/>
  <path d="M89.91,138.1c1-2.68,1.92-4.8,2.09-7.1.29-3.91-2-7.28-4-8" transform="translate(-55.58 -13.5)"/>
  <path d="M86.71,129.66c2.46-9.67,3.5-18.63,3.16-25-.29-5.45-1.59-9-3.87-9.63" transform="translate(-55.58 -13.5)"/>
  <path d="M83,103A105.05,105.05,0,0,0,93.3,75.59a72.16,72.16,0,0,0,.2-31.09" transform="translate(-55.58 -13.5)"/>
  <path d="M58.5,44.5c4-5.38,14.13-11.09,19.5-11.5,5.06-.38,3.35-1,15.5,11.5" transform="translate(-55.58 -13.5)"/>
  <path d="M63.5,40.5c0-3.87,6.26-7,14-7" transform="translate(-55.58 -13.5)"/>
  <path d="M89.5,41.5a8,8,0,0,0-8-8" transform="translate(-55.58 -13.5)"/>
  <path d="M77.5,33.5c0-11,10.73-20,24-20" transform="translate(-55.58 -13.5)"/>
  <path d="M81.5,33.5c0-.59-3.5.5-3.5-.5,0-7.53,11.28-14.5,19.5-14.5" transform="translate(-55.58 -13.5)"/>
  <path d="M95,18c0,1.13,3.64-2.64,5-4,1-1,2.38,2.2,3,4s0,3.5.5,3.5" transform="translate(-55.58 -13.5)"/>
  <path d="M101.5,13.5c-.16,7.23,2.53,8.12,2,8" transform="translate(-55.58 -13.5)"/>
  <path d="M82,82" transform="translate(-55.58 -13.5)"/>
  <path d="M92,69c0,17.67-7.16,32-16,32S60,86.67,60,69c0-6.94-2.4-18.07-1-24,.12-.52.82-.56,1-1,2.93-7.33,10.94-7,16-7s15.07,1.61,18,9C96.16,51.46,92,61.49,92,69Z" transform="translate(-55.58 -13.5)"/>
  <path d="M88,112.5c0,10.22-2.46,18.5-5.5,18.5S77,122.72,77,112.5c0-3.49-1.52-8.72-1-11.5,1.24-6.71,4.52-7.08,6.5-7C85.54,94.12,88,102.28,88,112.5Z" transform="translate(-55.58 -13.5)"/>
  <ellipse cx="32.42" cy="116.5" rx="2" ry="7"/>
</svg>
