<svg id="Spicy" xmlns="http://www.w3.org/2000/svg" viewBox="0 0 49.24 125.46">
  <title>Spicy-Icon</title>
  <path d="M58.5,44.5c-13,51,21,89,31.5,93.5" transform="translate(-55.08 -13)" fill="none" stroke="#000" stroke-miterlimit="10"/>
  <path d="M89.91,138.1c2.66-7.27,2.3-14.07-.82-15.21" transform="translate(-55.08 -13)" fill="none" stroke="#000" stroke-miterlimit="10"/>
  <path d="M86.71,129.66C91.27,111.76,91,96.26,86,95" transform="translate(-55.08 -13)" fill="none" stroke="#000" stroke-miterlimit="10"/>
  <path d="M83,103c4.64-8.59,16.36-32.7,10.5-58.5" transform="translate(-55.08 -13)" fill="none" stroke="#000" stroke-miterlimit="10"/>
  <path d="M58.5,44.5c6.85-9.16,23-9,35,0" transform="translate(-55.08 -13)" fill="none" stroke="#000" stroke-miterlimit="10"/>
  <path d="M63.5,40.5c0-3.87,6.26-7,14-7" transform="translate(-55.08 -13)" fill="none" stroke="#000" stroke-miterlimit="10"/>
  <path d="M89.5,41.5a8,8,0,0,0-8-8" transform="translate(-55.08 -13)" fill="none" stroke="#000" stroke-miterlimit="10"/>
  <path d="M77.5,33.5c0-11.05,10.73-20,24-20" transform="translate(-55.08 -13)" fill="none" stroke="#000" stroke-miterlimit="10"/>
  <path d="M81.5,33.5c0-8.29,7.16-15,16-15" transform="translate(-55.08 -13)" fill="none" stroke="#000" stroke-miterlimit="10"/>
  <path d="M97.5,18.5c0,1.66,2.68,3,6,3" transform="translate(-55.08 -13)" fill="none" stroke="#000" stroke-miterlimit="10"/>
  <path d="M101.5,13.5c2.34,4.34,2.69,7.93,2,8" transform="translate(-55.08 -13)" fill="none" stroke="#000" stroke-miterlimit="10"/>
</svg>
