<svg id="Sweet" xmlns="http://www.w3.org/2000/svg" viewBox="0 0 122.71 64">
  <title>Sweet-Icon</title>
  <polygon points="29.3 47.71 1.61 58 5.64 45.64 0 34.36 6.98 22.76 1.72 13.93 29.38 15.81 25.66 32.67 29.3 47.71"/>
  <polygon points="94.35 18.25 122.71 10 117.79 22.04 122.6 33.69 114.8 44.76 119.4 53.95 91.96 50.07 96.88 33.52 94.35 18.25"/>
  <path d="M75.77,43a31.9,31.9,0,0,0-12.53,2.23q-.9.36-1.77.76L66,44v63l-4-4H60V46.73a32,32,0,0,0,24.23,58.91q1-.29,1.92-.65L82,106V44.58a.6.6,0,0,1,1-.4L84.64,46H87v58.66A32,32,0,0,0,75.77,43Z" transform="translate(-13.39 -43)"/>
</svg>
